<svg xmlns="http://www.w3.org/2000/svg" height="512" viewBox="-29 0 487 487.719" width="512" fill="#fff"><path d="M220.867 266.176c-.902-.195-1.828-.23-2.742-.094a18.19 18.19 0 0 1-16.086-18.035 8 8 0 1 0-16 0c.023 15.395 10.32 28.88 25.164 32.953v8a8 8 0 1 0 16 0v-7.516c17.133-3.586 28.777-19.543 26.977-36.953a34.17 34.17 0 0 0-33.977-30.645 18.17 18.17 0 0 1-18.164-18.164 18.17 18.17 0 0 1 18.164-18.164c10.03 0 18.164 8.133 18.164 18.164a8 8 0 1 0 16 0 34.23 34.23 0 0 0-27.164-33.441V155a8 8 0 1 0-16 0v7.77c-16.508 4.508-27.133 20.535-24.86 37.496s16.746 29.62 33.86 29.617c9.898 0 17.973 7.926 18.152 17.82s-7.598 18.113-17.488 18.473zM104.195 222.5c0 64.07 51.938 116.008 116.008 116.008S336.2 286.57 336.2 222.5s-51.937-116.008-116.008-116.008c-64.04.07-115.934 51.97-116.008 116.008zm116.008-100.008c55.234 0 100.008 44.773 100.008 100.008s-44.773 100.008-100.008 100.008S120.195 277.734 120.195 222.5c.063-55.207 44.8-99.945 100.008-100.008zM375.648 358.23l-62.668 29.6c-8.652-16.094-25.25-26.336-43.516-26.852l-57.852-1.6a61.1 61.1 0 0 1-26.293-6.789l-5.887-3.05c-30.14-15.7-66.066-15.672-96.176.102l.367-13.336a8 8 0 0 0-7.777-8.219L12.4 326.36a8 8 0 0 0-8.215 7.777L.363 473.348a8 8 0 0 0 7.777 8.219l63.438 1.746h.22a8 8 0 0 0 8-7.781l.184-6.66 16.48-8.824a28.27 28.27 0 0 1 21.098-2.309l98.414 27.62c.172.05.344.1.52.13a105.35 105.35 0 0 0 21.629 2.23 106.74 106.74 0 0 0 44.59-9.73 7.43 7.43 0 0 0 .992-.547l142.7-92.297c3.555-2.3 4.703-6.97 2.62-10.656-10.594-18.797-34.1-25.957-53.367-16.258zM16.578 465.793l3.4-123.22 47.44 1.305-3.4 123.223zm258.926-2.094a90.78 90.78 0 0 1-55.47 6.2l-98.148-27.55c-11.047-3.12-22.87-1.828-32.977 3.605l-8.422 4.512 2.254-81.926a87.94 87.94 0 0 1 89.336-4.766l5.887 3.05c10.3 5.313 21.637 8.242 33.2 8.578l57.855 1.6a35.09 35.09 0 0 1 33.348 27.961l-86.176-2.38a8.01 8.01 0 0 0-8.22 7.777c-.126 4.414 3.363 8.098 7.777 8.22l95.102 2.617h.223a8 8 0 0 0 7.992-7.78 50.77 50.77 0 0 0-.773-10.379l64.277-30.37a1.32 1.32 0 0 0 .188-.1c9.117-4.613 20.14-3.07 27.64 3.87zM228.203 84V8a8 8 0 1 0-16 0v76a8 8 0 1 0 16 0zm0 0"/><path d="M288.203 84V48a8 8 0 1 0-16 0v36a8 8 0 1 0 16 0zm-120 0V48a8 8 0 1 0-16 0v36a8 8 0 1 0 16 0zm0 0"/></svg>