<svg xmlns="http://www.w3.org/2000/svg" xmlns:xlink="http://www.w3.org/1999/xlink" width="512" height="512"><g fill="#020202"><path d="M233.684 279.428c-.947-.205-1.92-.242-2.878-.1a19.1 19.1 0 0 1-16.888-18.933 8.4 8.4 0 0 0-8.397-8.399 8.4 8.4 0 0 0-8.398 8.399 35.93 35.93 0 0 0 26.417 34.593v8.398a8.4 8.4 0 0 0 8.398 8.398 8.4 8.4 0 0 0 8.397-8.398v-7.9c17.986-3.765 30.2-20.516 28.32-38.793s-17.293-32.166-35.67-32.17c-10.53 0-19.068-8.538-19.068-19.068s8.538-19.068 19.068-19.068 19.068 8.538 19.068 19.068a8.4 8.4 0 0 0 8.398 8.398 8.4 8.4 0 0 0 8.398-8.398 35.93 35.93 0 0 0-28.517-35.106v-7.644a8.4 8.4 0 0 0-8.397-8.398 8.4 8.4 0 0 0-8.398 8.398v8.156a35.87 35.87 0 0 0-26.098 39.363c2.386 17.805 17.58 31.096 35.545 31.092a19.06 19.06 0 0 1 19.057 18.708c.194 10.387-7.974 19.015-18.358 19.393zm-122.48-45.85c0 67.26 54.523 121.783 121.783 121.783S354.77 300.837 354.77 233.577s-54.522-121.783-121.783-121.783c-67.226.074-121.705 54.556-121.783 121.783zM232.987 128.6c57.984 0 104.987 47.002 104.987 104.987S290.97 338.564 232.987 338.564 128 291.562 128 233.577c.066-57.955 47.03-104.92 104.987-104.987zM396.17 376.064l-65.788 31.084c-9.083-16.895-26.507-27.646-45.682-28.188l-60.73-1.67c-9.616-.275-19.053-2.7-27.603-7.127l-6.18-3.203a109.01 109.01 0 0 0-100.964.107l.386-14a8.4 8.4 0 0 0-8.165-8.629l-66.596-1.832c-4.638-.127-8.496 3.526-8.623 8.164L2.202 496.913a8.4 8.4 0 0 0 8.165 8.628l66.596 1.833h.23a8.4 8.4 0 0 0 8.398-8.169l.192-7 17.3-9.264c6.8-3.653 14.73-4.523 22.148-2.424l103.313 28.996a7.61 7.61 0 0 0 .545.136c7.468 1.563 15.08 2.346 22.706 2.342 16.157.008 32.125-3.474 46.8-10.215a7.87 7.87 0 0 0 1.041-.574l149.796-96.893a8.4 8.4 0 0 0 2.751-11.186c-11.12-19.733-35.785-27.25-56.022-17.068zM19.225 488.982l3.56-129.354 49.803 1.37-3.56 129.357-49.803-1.373zm271.816-2.198c-18.244 8.234-38.62 10.506-58.23 6.5L129.776 464.36a46.44 46.44 0 0 0-34.618 3.785l-8.84 4.736 2.366-86.004c28.016-18.635 63.946-20.55 93.783-5.004l6.18 3.203c10.802 5.577 22.714 8.652 34.864 9.006l60.736 1.668a36.84 36.84 0 0 1 35.008 29.354l-90.466-2.497c-4.64-.127-8.497 3.53-8.628 8.164a8.4 8.4 0 0 0 8.164 8.628l99.836 2.748h.233a8.4 8.4 0 0 0 8.39-8.17 53.19 53.19 0 0 0-.813-10.896l67.48-31.88c.065-.03.132-.063.197-.095a25.66 25.66 0 0 1 29.017 4.063L291.04 486.784zM241.385 88.182V8.398A8.4 8.4 0 0 0 232.987 0a8.4 8.4 0 0 0-8.397 8.398v79.784a8.4 8.4 0 0 0 8.397 8.398 8.4 8.4 0 0 0 8.398-8.398z"/><use xlink:href="#B"/><use xlink:href="#B" x="-125.972"/></g><defs ><path id="B" d="M304.372 88.182V50.4a8.4 8.4 0 0 0-8.398-8.398 8.4 8.4 0 0 0-8.398 8.398v37.792a8.4 8.4 0 0 0 8.398 8.398 8.4 8.4 0 0 0 8.398-8.398z"/></defs></svg>