<svg xmlns="http://www.w3.org/2000/svg" height="512" viewBox="0 0 64 64" width="512" fill="#2180ac"><path d="M24 19a7.01 7.01 0 0 0-7 7 7.01 7.01 0 0 0 7 7 7.01 7.01 0 0 0 7-7 7.01 7.01 0 0 0-7-7zm3.18 3.175L24 24.72l-3.18-2.544C21.686 21.452 22.786 21 24 21s2.314.452 3.18 1.175zM19 26c0-.82.217-1.582.568-2.265L23 26.48v4.42a5.01 5.01 0 0 1-4-4.9zm6 4.9v-4.42l3.432-2.746c.35.683.568 1.446.568 2.265a5.01 5.01 0 0 1-4 4.899zm8-9.9h2v2h-2zm4 0h4v2h-4zm-4 4h8v2h-8zm0 4h8v2h-8zm18 0h-2V3c0-1.103-.897-2-2-2H19c-1.103 0-2 .897-2 2v12h-2c-1.103 0-2 .897-2 2v18h-1c-1.654 0-3 1.346-3 3v22c0 1.654 1.346 3 3 3h39c2.206 0 4-1.794 4-4V33c0-2.206-1.794-4-4-4zM19 3h28v38.184c-.314-.112-.648-.184-1-.184h-1V17c0-1.103-.897-2-2-2v-5h-6v5h-2V7h-6v8H19zm22 12h-2v-3h2zm-8 0h-2V9h2zm-18 2h28v24h-1a1 1 0 0 1-1-1v-2c0-1.654-1.346-3-3-3H15zm-3 44a1 1 0 0 1-1-1V38a1 1 0 0 1 1-1h26a1 1 0 0 1 1 1v2c0 1.654 1.346 3 3 3h4a1 1 0 0 1 1 1v15a3.97 3.97 0 0 0 .537 2zm41-2c0 1.103-.897 2-2 2s-2-.897-2-2V31h2c1.103 0 2 .897 2 2zm-20-6h12v-6H33zm2-4h8v2h-8zm-2 6h12v2H33zM23 11h4v2h-4zm0-4h4v2h-4z"/></svg>