<svg xmlns="http://www.w3.org/2000/svg" height="512" viewBox="0 0 480.033 480" width="512" fill="#2180ac"><path d="M8.03 448.016h24v24a8 8 0 0 0 8 8h336a8 8 0 0 0 8-8v-32h-16v24h-320v-16h184v-16h-216v-344h64a8 8 0 0 0 8-8v-64h248v152h16v-120h16v136h16v-144a8 8 0 0 0-8-8h-24v-24a8 8 0 0 0-8-8h-264c-.16 0-.305.082-.465.098a7.52 7.52 0 0 0-2.133.422c-.238.07-.47.156-.7.25a7.87 7.87 0 0 0-2.359 1.598l-72 72c-.668.68-1.2 1.477-1.598 2.348-.113.246-.176.496-.266.75a7.55 7.55 0 0 0-.406 2.055c0 .176-.105.328-.105.504v359.977c0 2.13.848 4.168 2.355 5.668s3.55 2.34 5.676 2.332zm64-420.687v44.688H27.344zm176 148.687v-8h64v-40c-.016-12.418-9.508-22.773-21.88-23.87a16.02 16.02 0 0 0-2.121-.129h-224c-13.254 0-24 10.746-24 24v256c0 13.258 10.746 24 24 24h120v-16h-80v-24h64v-16h-64v-24h56v-16h-56v-24h57.602v-16h-57.6v-24h72v-16h-72v-24h104v-16h-104v-24h128v8zm40.656-55.94a7.95 7.95 0 0 1 7.344 7.941v24h-48V119.96h39.664c.328.06.66.094.992.113zm-224.656-.06h24v32h-32v-24a8 8 0 0 1 8-8zm24 272h-24a8 8 0 0 1-8-8v-16h32zm0-40h-32v-24h32zm0-40h-32v-24h32zm0-40h-32v-24h32zm0-40h-32v-24h32zm0-40h-32v-24h32zm16-40v-32l128-.04v32.04zm0 0"/><path d="M120.03 72.016h64v16h-64zm80 0h32v16h-32zm0 0"/><path d="M120.03 40.016h112v16h-112zM413.688 378.36l-1.023 1.023C447.668 323.12 434.16 249.47 381.47 209.3s-127.293-33.72-172.3 14.926-45.637 123.523-1.477 172.926 118.64 57.145 172.008 17.867l57.695 57.695a24.97 24.97 0 0 0 35.313 0c9.75-9.754 9.754-25.56 0-35.3zM192.03 312.016c0-61.855 50.145-112 112-112s112 50.145 112 112-50.145 112-112 112c-61.828-.066-111.934-50.172-112-112zm263.03 152a8.93 8.93 0 0 1-6.344-2.621L392.03 404.7a128.09 128.09 0 0 0 12.152-13.223l57.215 57.215a8.97 8.97 0 0 1 1.949 9.773c-1.387 3.352-4.656 5.54-8.285 5.54zm0 0"/><path d="M304.03 216.016c-53.02 0-96 42.98-96 96s42.98 96 96 96 96-42.98 96-96c-.055-52.996-43.004-95.94-96-96zm-32 96c0-17.672 14.328-32 32-32s32 14.328 32 32-14.324 32-32 32-32-14.324-32-32zm-9.305 24.328a97.12 97.12 0 0 1-36.16-24.328c10.055-10.742 22.422-19.062 36.16-24.328-8.926 14.992-8.926 33.668 0 48.656zm82.6-48.656c13.742 5.266 26.105 13.586 36.16 24.328a97.09 97.09 0 0 1-36.16 24.328c8.926-14.988 8.926-33.664 0-48.656zm-41.305-55.672c35.578.043 66.86 23.555 76.8 57.715a122.04 122.04 0 0 0-71.824-25.457 47.67 47.67 0 0 0-9.902 0c-26.062.594-51.25 9.512-71.875 25.457 9.94-34.16 41.227-57.672 76.8-57.715zm0 160c-35.574-.043-66.86-23.55-76.8-57.7a122.08 122.08 0 0 0 71.824 25.457 48.23 48.23 0 0 0 9.906 0 122.07 122.07 0 0 0 71.87-25.457c-9.94 34.16-41.223 57.668-76.8 57.7zm16-80c0 8.836-7.164 16-16 16s-16-7.164-16-16 7.164-16 16-16 16 7.164 16 16zm0 0"/></svg>