<svg xmlns="http://www.w3.org/2000/svg" viewBox="0 0 512.076 512.076" width="512" height="512" fill="#fff"><path d="M498.64 395.04l-103.646-69.12c-13.153-8.7-30.784-5.838-40.508 6.58l-30.2 38.818c-3.88 5.116-10.933 6.6-16.546 3.482l-5.743-3.166c-19.038-10.377-42.726-23.296-90.453-71.04s-60.672-71.45-71.05-90.453l-3.15-5.743a12.92 12.92 0 0 1 3.413-16.606L179.56 157.6c12.412-9.725 15.28-27.35 6.588-40.508l-69.12-103.646C108.12.056 90.25-3.966 76.46 4.323L33.12 30.358A61.13 61.13 0 0 0 5.242 66.54c-15.607 56.866-3.866 155.008 140.706 299.597 115.004 114.995 200.62 145.92 259.465 145.92a151.18 151.18 0 0 0 40.107-5.239 61.08 61.08 0 0 0 36.181-27.878l26.06-43.315c8.3-13.792 4.28-31.673-9.123-40.585zm-5.58 31.83l-26 43.34c-5.745 9.832-15.072 17.06-26.027 20.173-52.497 14.413-144.213 2.475-283.008-136.32S7.3 123.56 21.703 71.054a44.17 44.17 0 0 1 20.198-26.061l43.34-26a13.06 13.06 0 0 1 17.604 3.959l69.06 103.637a13.14 13.14 0 0 1-2.85 17.58l-38.8 30.182a29.87 29.87 0 0 0-7.91 38.332l3.08 5.598c10.906 20.002 24.465 44.885 73.967 94.38s74.377 63.053 94.37 73.958l5.606 3.1a29.87 29.87 0 0 0 38.332-7.91l30.182-38.8c4.224-5.38 11.87-6.62 17.58-2.85L489.1 409.27a13.05 13.05 0 0 1 3.958 17.604zM290.16 85.4c80.08.1 144.977 64.986 145.067 145.067 0 4.713 3.82 8.533 8.533 8.533s8.533-3.82 8.533-8.533c-.1-89.503-72.63-162.035-162.133-162.133-4.713 0-8.533 3.82-8.533 8.533s3.82 8.533 8.533 8.533zm0 51.2c51.816.06 93.806 42.05 93.867 93.867 0 4.713 3.82 8.533 8.533 8.533s8.533-3.82 8.533-8.533c-.07-61.238-49.696-110.863-110.933-110.933-4.713 0-8.533 3.82-8.533 8.533s3.82 8.533 8.533 8.533zm0 51.2c23.552.028 42.638 19.114 42.667 42.667 0 4.713 3.82 8.533 8.533 8.533s8.533-3.82 8.533-8.533c-.038-32.974-26.76-59.696-59.733-59.733-4.713 0-8.533 3.82-8.533 8.533s3.82 8.533 8.533 8.533z"/></svg>