<svg xmlns="http://www.w3.org/2000/svg" height="512" width="512" fill="#2180ac"><path d="M466.2 410.422l-20.668-7.176c11.57-9.164 19.012-23.32 19.012-39.2v-15.148c0-27.562-22.426-49.988-49.988-49.988s-49.988 22.426-49.988 49.988v15.148c0 15.87 7.445 30.027 19.016 39.2l-20.672 7.176c-13.258 4.605-24.402 13.05-32.383 23.82h-55.836v-22.035c0-29.004-18.4-54.883-45.8-64.395l-20.672-7.176c11.57-9.164 19.016-23.32 19.016-39.2v-15.148c0-27.566-22.426-49.988-49.988-49.988s-49.988 22.426-49.988 49.988v15.148c0 15.87 7.445 30.027 19.012 39.2l-20.668 7.176c-27.398 9.512-45.8 35.4-45.8 64.395v22.035h-72.2c-4.184 0-7.574 3.4-7.574 7.574v62.6C0 508.6 3.4 512 7.574 512h315.078c.34 0 .676-.03 1.008-.074a7.85 7.85 0 0 0 1.012.074h179.754c4.184 0 7.574-3.4 7.574-7.574v-29.6a68.22 68.22 0 0 0-45.81-64.395zm-86.484-61.516c0-19.2 15.63-34.84 34.84-34.84s34.84 15.63 34.84 34.84v15.148c0 19.2-15.63 34.84-34.84 34.84s-34.84-15.63-34.84-34.84zm-237.316-62.6c0-19.2 15.63-34.84 34.84-34.84s34.84 15.63 34.84 34.84v15.148c0 19.2-15.63 34.84-34.84 34.84s-34.84-15.63-34.84-34.84zm50.73 65.137l7.36 2.555-23.25 40.34-23.25-40.34 7.36-2.555zm-98.195 60.773c0-22.56 14.32-42.687 35.63-50.086l8.86-3.074 31.254 54.234c1.352 2.348 3.855 3.793 6.563 3.793s5.2-1.445 6.563-3.793l31.254-54.234 8.86 3.074a53.06 53.06 0 0 1 35.625 50.086v22.035H94.926zM15.148 449.4H322.03a67.93 67.93 0 0 0-4.934 25.426v22.035H15.148zm481.703 47.46H332.246v-22.035a53.06 53.06 0 0 1 35.625-50.086l30.785-10.687h31.78l30.785 10.688c21.313 7.402 35.63 27.527 35.63 50.086zM464.03 54.53h-76.937a7.58 7.58 0 0 0-7.574 7.574c0 4.184 3.4 7.574 7.574 7.574h76.938c18.098 0 32.82 14.723 32.82 32.824v105.023c0 18.098-14.723 32.82-32.82 32.82H360.016c-4.184 0-7.574 3.4-7.574 7.574v32.2l-37.562-37.566a7.57 7.57 0 0 0-5.355-2.219h-61.602c-18.098 0-32.824-14.723-32.824-32.82V102.5c0-18.098 14.723-32.82 32.824-32.82h103.762c4.184 0 7.574-3.4 7.574-7.574s-3.4-7.574-7.574-7.574h-39.637V47.97c0-26.45-21.52-47.97-47.97-47.97H47.97C21.52 0 0 21.52 0 47.97v16.746C0 68.9 3.4 72.3 7.574 72.3s7.574-3.4 7.574-7.574V47.97c0-18.098 14.723-32.82 32.82-32.82h216.1c18.098 0 32.82 14.723 32.82 32.82v6.563H247.92c-26.45 0-47.97 21.52-47.97 47.97v83.313h-79.27c-4.184 0-7.574 3.4-7.574 7.574v32.2l-37.563-37.57a7.57 7.57 0 0 0-5.355-2.219H47.97c-18.098 0-32.82-14.723-32.82-32.82V99.93c0-4.184-3.4-7.574-7.574-7.574A7.58 7.58 0 0 0 0 99.934v53.06c0 26.453 21.52 47.97 47.97 47.97h19.078l48.277 48.277a7.55 7.55 0 0 0 5.355 2.215c.977 0 1.96-.187 2.898-.574 2.828-1.172 4.676-3.934 4.676-6.996V200.96h71.7v6.566c0 26.45 21.52 47.965 47.97 47.965h58.465l48.273 48.277a7.57 7.57 0 0 0 5.355 2.219c.977 0 1.96-.187 2.898-.578 2.828-1.172 4.676-3.934 4.676-6.996V255.49h96.44c26.45 0 47.97-21.516 47.97-47.965V102.5c0-26.45-21.52-47.97-47.97-47.97zm0 0"/></svg>