<svg xmlns="http://www.w3.org/2000/svg" viewBox="0 0 511.992 511.992" width="512" height="512" fill="#fff"><path d="M511.005 279.646c-4.597-46.238-25.254-89.83-58.168-122.744a200.8 200.8 0 0 0-98.782-54.239V77.255c14.796-3.68 25.794-17.074 25.794-32.993 0-18.748-15.252-34-34-34h-72c-18.748 0-34 15.252-34 34 0 15.918 10.998 29.3 25.793 32.993v25.48c-36.115 8.07-70.43 26.12-98.477 54.17-6.138 6.138-11.798 12.577-16.98 19.27-.25-.02-.502-.038-.758-.038h-71.26c-5.522 0-10 4.477-10 10s4.478 10 10 10h58.412c-7.332 12.275-13.244 25.166-17.744 38.436H10c-5.522 0-10 4.477-10 10s4.478 10 10 10h103.184c-2.882 12.65-4.536 25.526-4.963 38.437H64c-5.522 0-10 4.477-10 10s4.478 10 10 10h44.54c.844 12.944 2.925 25.82 6.244 38.437H50c-5.522 0-10 4.477-10 10s4.478 10 10 10h71.166c9.8 25.95 25.14 50.274 46 71.132 32.946 32.946 76.582 53.608 122.868 58.18a201.73 201.73 0 0 0 19.82.975c39.022 0 77.548-11.293 110.238-32.58 4.628-3.014 5.937-9.2 2.923-13.837s-9.2-5.937-13.837-2.923c-71.557 46.597-167.4 36.522-227.87-23.957-70.962-70.962-70.962-186.425 0-257.388s186.424-70.96 257.387 0c60.4 60.4 70.53 156.15 24.086 227.673-3.008 4.632-1.7 10.826 2.94 13.833a10 10 0 0 0 13.833-2.941c24.814-38.215 35.984-84.37 31.452-129.965zM259.85 44.263a14.02 14.02 0 0 1 14-14h72a14.02 14.02 0 0 1 14 14 14.02 14.02 0 0 1-14 14h-72a14.02 14.02 0 0 1-14-14zm25.793 55.033V78.263h48.413V99.26c-16.076-1.912-32.34-1.9-48.413.036zM445.77 425.5c-2.64 0-5.2 1.07-7.07 2.93s-2.93 4.44-2.93 7.07a10.05 10.05 0 0 0 2.93 7.07c1.86 1.87 4.43 2.93 7.07 2.93a10.05 10.05 0 0 0 7.07-2.93c1.86-1.86 2.93-4.44 2.93-7.07s-1.07-5.2-2.93-7.07c-1.87-1.86-4.44-2.93-7.07-2.93zM310 144.6c-85.538 0-155.13 69.6-155.13 155.13S224.46 454.87 310 454.87s155.13-69.6 155.13-155.13S395.54 144.6 310 144.6zm0 290.258c-74.5 0-135.13-60.62-135.13-135.13S235.5 164.6 310 164.6s135.13 60.62 135.13 135.13S384.512 434.87 310 434.87zm63.257-212.528l-49.53 49.53a30.88 30.88 0 0 0-27.452 0l-22.167-22.167c-3.906-3.905-10.236-3.905-14.143 0a10 10 0 0 0 0 14.142l22.167 22.167a30.87 30.87 0 0 0-3.205 13.726c0 17.134 13.94 31.074 31.074 31.074s31.074-13.94 31.074-31.074c0-4.925-1.157-9.584-3.205-13.726l49.53-49.53c3.905-3.905 3.905-10.237 0-14.142s-10.235-3.905-14.142 0zM310 310.812a11.09 11.09 0 0 1-11.074-11.074A11.09 11.09 0 0 1 310 288.664a11.09 11.09 0 0 1 11.074 11.074A11.09 11.09 0 0 1 310 310.812zm106.92-20.952h-9.265c-5.522 0-10 4.477-10 10s4.478 10 10 10h9.265c5.522 0 10-4.477 10-10s-4.478-10-10-10zm-204.574-.244h-9.264c-5.522 0-10 4.477-10 10s4.478 10 10 10h9.264c5.522 0 10-4.477 10-10s-4.478-10-10-10zm97.777-77.533c5.522 0 10-4.477 10-10v-9.264c0-5.523-4.478-10-10-10s-10 4.477-10 10v9.264c0 5.523 4.478 10 10 10zm-.243 175.3c-5.522 0-10 4.477-10 10v9.264c0 5.523 4.478 10 10 10s10-4.477 10-10v-9.264c0-5.523-4.478-10-10-10zM10 351.44c-2.63 0-5.2 1.07-7.07 2.93S0 358.8 0 361.44s1.07 5.2 2.93 7.07a10.08 10.08 0 0 0 7.07 2.93c2.63 0 5.2-1.07 7.07-2.93a10.08 10.08 0 0 0 2.93-7.07c0-2.63-1.07-5.2-2.93-7.07s-4.44-2.93-7.07-2.93z"/></svg>