<svg xmlns="http://www.w3.org/2000/svg" width="512" height="512"><path d="M511.013 279.65c-4.598-46.24-25.255-89.83-58.17-122.746-28.13-28.127-62.557-46.203-98.784-54.24V77.256c14.797-3.68 25.795-17.074 25.795-32.994 0-18.748-15.252-34-34-34h-72c-18.748 0-34 15.252-34 34 0 15.918 10.998 29.312 25.793 32.994v25.48a200.8 200.8 0 0 0-98.479 54.17c-6.138 6.138-11.798 12.577-16.98 19.27-.25-.02-.502-.038-.76-.038h-71.26c-5.522 0-10 4.477-10 10s4.478 10 10 10h58.413c-7.332 12.275-13.244 25.167-17.744 38.437H10c-5.522 0-10 4.477-10 10s4.478 10 10 10h103.186c-2.882 12.65-4.536 25.526-4.963 38.438H64c-5.522 0-10 4.477-10 10s4.478 10 10 10h44.54a203.21 203.21 0 0 0 6.244 38.438H50c-5.522 0-10 4.478-10 10s4.48 10 10 10h71.167c9.8 25.952 25.14 50.275 46 71.134 32.947 32.946 76.584 53.608 122.87 58.182a201.73 201.73 0 0 0 19.819.976c39.022 0 77.55-11.294 110.24-32.582a10 10 0 0 0-10.914-16.76C337.624 499 241.79 488.923 181.3 428.443c-70.963-70.963-70.963-186.428 0-257.392s186.427-70.962 257.4 0c60.4 60.4 70.53 156.153 24.087 227.676-3 4.633-1.7 10.826 2.94 13.834a10 10 0 0 0 13.833-2.941c24.815-38.217 35.986-84.373 31.454-129.97zM259.853 44.264a14.02 14.02 0 0 1 14-14h72a14.02 14.02 0 0 1 14.001 14 14.02 14.02 0 0 1-14.001 14h-72a14.02 14.02 0 0 1-14-14zm25.794 55.033V78.264h48.413v20.998a203.81 203.81 0 0 0-48.413.035zm160.13 326.2c-2.64 0-5.2 1.07-7.07 2.93s-2.93 4.44-2.93 7.07a10.05 10.05 0 0 0 2.93 7.07c1.86 1.87 4.43 2.93 7.07 2.93a10.05 10.05 0 0 0 7.07-2.93c1.86-1.86 2.93-4.44 2.93-7.07a10.07 10.07 0 0 0-2.93-7.07c-1.87-1.86-4.44-2.93-7.07-2.93zM310.006 144.6c-85.54 0-155.132 69.6-155.132 155.13s69.592 155.132 155.132 155.132 155.13-69.6 155.13-155.132-69.592-155.13-155.13-155.13zm0 290.263c-74.513 0-135.132-60.62-135.132-135.132s60.62-135.13 135.132-135.13 135.13 60.62 135.13 135.13-60.62 135.132-135.13 135.132zm63.257-212.53l-49.53 49.53a30.88 30.88 0 0 0-27.453 0l-22.167-22.167c-3.906-3.905-10.236-3.905-14.144 0a10 10 0 0 0 0 14.142l22.167 22.168a30.87 30.87 0 0 0-3.205 13.727c0 17.134 13.94 31.074 31.074 31.074s31.075-13.94 31.075-31.074a30.89 30.89 0 0 0-3.205-13.727l49.53-49.53c3.905-3.905 3.905-10.237 0-14.143a10 10 0 0 0-14.14.001zm-63.257 88.472a11.09 11.09 0 0 1-11.074-11.074 11.09 11.09 0 0 1 11.074-11.074 11.09 11.09 0 0 1 11.073 11.074 11.09 11.09 0 0 1-11.073 11.074zm106.92-20.952h-9.265c-5.522 0-10 4.478-10 10s4.478 10 10 10h9.265c5.522 0 10-4.478 10-10s-4.478-10-10-10zm-204.576-.244h-9.264c-5.522 0-10 4.477-10 10s4.478 10 10 10h9.264c5.522 0 10-4.478 10-10s-4.48-10-10-10zm97.777-77.534c5.522 0 10-4.477 10-10v-9.264c0-5.523-4.48-10-10-10s-10 4.477-10 10v9.264c0 5.523 4.48 10 10 10zm-.243 175.312c-5.522 0-10 4.478-10 10v9.265c0 5.522 4.48 10 10 10s10-4.478 10-10V397.4c0-5.523-4.478-10-10-10zM10 351.445c-2.63 0-5.2 1.07-7.07 2.93S0 358.815 0 361.445a10.05 10.05 0 0 0 2.93 7.07 10.08 10.08 0 0 0 7.07 2.93 10.07 10.07 0 0 0 7.069-2.93 10.08 10.08 0 0 0 2.931-7.07c0-2.63-1.07-5.2-2.93-7.07s-4.44-2.93-7.07-2.93z"/></svg>