<svg xmlns="http://www.w3.org/2000/svg" height="512" width="512" fill="#2180ac"><path d="M136 120h32v16h-32zm32 88h8a24.027 24.027 0 0 0 24-24v-16h-16v16a8.009 8.009 0 0 1-8 8h-8z"/><circle cx="152" cy="152" r="8"/><path d="m200 120h32v16h-32z"/><circle cx="216" cy="152" r="8"/><path d="M472 168H356.347a23.926 23.926 0 0 0-16.341 6.422l-55.262 51.37L256.66 209.4A79.499 79.499 0 0 0 264 176V64a32.036 32.036 0 0 0-32-32h-4.305A32.011 32.011 0 0 0 200 16h-32a64.072 64.072 0 0 0-64 64v96a79.498 79.498 0 0 0 7.339 33.411l-75.494 44.04A40.134 40.134 0 0 0 16 288v200a8 8 0 0 0 8 8h448a24.027 24.027 0 0 0 24-24V192a24.027 24.027 0 0 0-24-24zM256 410.74l-17.917 12.798L192 415.406v-144.6l17.753 22.2a7.999 7.999 0 0 0 5.805 2.989L216 296a8.001 8.001 0 0 0 5.656-2.343l34.688-34.688a23.832 23.832 0 0 0-.345 4.002zM120 176v-72h56a55.822 55.822 0 0 0 39.498-16.343A43.038 43.038 0 0 0 248 103.98V176a64 64 0 0 1-128 0zm141.77 54.915l-45.107 45.108-17.226-21.533a80.124 80.124 0 0 0 49.102-31.294zM248 64v23.948a27.034 27.034 0 0 1-22.417-13.963A55.64 55.64 0 0 0 232 48a16.018 16.018 0 0 1 16 16zM120 80a48.054 48.054 0 0 1 48-48h32a16.018 16.018 0 0 1 16 16 40.046 40.046 0 0 1-40 40h-56zm48.562 174.5l-17.226 21.533-45.108-45.1 13.23-7.718a80.124 80.124 0 0 0 49.102 31.294zM32 480v-26.997A96.779 96.779 0 0 0 58.997 480zm200 0H112a80.09 80.09 0 0 1-80-80V288a24.081 24.081 0 0 1 11.907-20.73l48.03-28.018 54.406 54.406A8.002 8.002 0 0 0 152 296l.443-.013a7.999 7.999 0 0 0 5.805-2.989L176 270.807v141.776l-44.17-7.795A23.968 23.968 0 0 1 112 381.152V336H96v45.152a39.944 39.944 0 0 0 33.049 39.392L232 438.712zm16 0v-43.883l46.233-33.023a5.096 5.096 0 0 1 7.96 5.146l-6.038 30.2a8 8 0 0 0 4.267 8.725l13.385 6.692a71.562 71.562 0 0 0 44.036 6.622l19.975-3.33a2.278 2.278 0 0 1 2.425 1.234 2.289 2.289 0 0 1-1.024 3.071l-25.284 12.642A56.281 56.281 0 0 1 328.892 480zm232-8a8.009 8.009 0 0 1-8 8h-94.112l8.486-4.243a18.289 18.289 0 0 0-11.185-34.399l-19.975 3.33a55.661 55.661 0 0 1-34.251-5.149l-7.92-3.96 4.84-24.2a21.097 21.097 0 0 0-32.949-21.305L272 399.312v-136.34a8.027 8.027 0 0 1 2.553-5.859l67.506-62.753V240a8.009 8.009 0 0 1-8 8H304v16h30.06a24.027 24.027 0 0 0 24-24v-56H472a8.009 8.009 0 0 1 8 8zM297.94 296h16v16h-16zm30.06 0h57.94v16H328zm73.94 0H456v16h-54.06zm-104 32H336v16h-38.06zm54.06 0h73.94v16H352zm89.94 0H456v16h-14.06zM328 360h56v16h-56zm72 0h56v16h-56zm8 80h48v16h-48zm-8-32h56v16h-56zm-32 0h16v16h-16zm24-200h16v16h-16zm32 0h32v16h-32zm16 32h16v16h-16zm-48 0h32v16h-32z"/></svg>