<svg xmlns="http://www.w3.org/2000/svg" width="512" height="512"><path d="M90.05 395.95c-7.168 0-14.06 1.8-20.172 5.148C37.676 359.816 20 308.535 20 256 20 125.867 125.867 20 256 20c15.82 0 31.633 1.574 47 4.68a10 10 0 0 0 11.78-7.82c1.092-5.414-2.406-10.688-7.82-11.785C290.293 1.707 273.15 0 256 0 187.62 0 123.332 26.63 74.98 74.98S0 187.62 0 256c0 57.52 19.53 113.652 55.1 158.652-4.578 6.84-7.04 14.88-7.04 23.297a41.7 41.7 0 0 0 12.305 29.695c7.935 7.93 18.468 12.306 29.685 12.306s21.766-4.37 29.7-12.305a41.72 41.72 0 0 0 12.3-29.7c0-11.22-4.367-21.766-12.3-29.695-7.933-7.934-18.48-12.3-29.7-12.3zm15.555 57.555c-4.152 4.156-9.68 6.445-15.555 6.445a21.86 21.86 0 0 1-15.555-6.445 21.85 21.85 0 0 1-6.445-15.555c0-5.88 2.3-11.402 6.445-15.56s9.68-6.44 15.555-6.44 11.398 2.3 15.555 6.44a21.84 21.84 0 0 1 6.445 15.56c0 5.88-2.3 11.4-6.445 15.555zm351.298-356.17c10.87-16.3 9.125-38.605-5.254-52.984-7.934-7.93-18.48-12.3-29.7-12.3s-21.766 4.37-29.7 12.3a41.72 41.72 0 0 0-12.301 29.699c0 11.22 4.367 21.766 12.3 29.7s18.48 12.3 29.7 12.3c7.168 0 14.06-1.8 20.172-5.148C474.324 152.188 492 203.465 492 256c0 130.133-105.867 236-236 236-15.664 0-31.328-1.543-46.55-4.6a10.01 10.01 0 0 0-11.77 7.844c-1.082 5.418 2.43 10.684 7.844 11.77A258.15 258.15 0 0 0 256 512c68.38 0 132.668-26.63 181.02-74.98S512 324.38 512 256c0-57.523-19.535-113.66-55.097-158.664zm-50.508-7.727c-4.156-4.156-6.445-9.68-6.445-15.56a21.85 21.85 0 0 1 6.445-15.555c4.155-4.157 9.68-6.445 15.555-6.445a21.87 21.87 0 0 1 15.56 6.445c8.574 8.578 8.574 22.535 0 31.113-4.156 4.152-9.684 6.44-15.56 6.44a21.84 21.84 0 0 1-15.555-6.44zM214.735 428c0 5.523 4.48 10 10 10h62.527a10 10 0 0 0 10-10v-19.387a156.58 156.58 0 0 0 37.531-15.555l13.688 13.688a10 10 0 0 0 7.074 2.93c2.648 0 5.195-1.055 7.07-2.934l44.195-44.227c3.902-3.906 3.902-10.238 0-14.14l-13.672-13.672c6.805-11.813 12.016-24.383 15.555-37.53h19.313a10 10 0 0 0 10-10v-62.527a10 10 0 0 0-10-10H408.7a156.59 156.59 0 0 0-15.551-37.527l13.598-13.598a10.01 10.01 0 0 0 2.93-7.074 10.03 10.03 0 0 0-2.934-7.074l-44.23-44.195c-3.902-3.902-10.234-3.902-14.14.004l-13.578 13.582c-11.813-6.805-24.383-12.016-37.53-15.555V84a10 10 0 0 0-10-10h-62.527c-5.52 0-10 4.477-10 10v19.2c-13.145 3.535-25.715 8.746-37.527 15.55l-13.582-13.582c-3.902-3.902-10.234-3.906-14.14-.004l-44.227 44.2c-1.88 1.875-2.934 4.418-2.934 7.07a10.01 10.01 0 0 0 2.93 7.074l13.598 13.598c-6.805 11.813-12.016 24.38-15.555 37.527H84.02a10 10 0 0 0-10 9.996l-.035 62.527a9.99 9.99 0 0 0 2.926 7.074 10 10 0 0 0 7.074 2.93h19.313a156.58 156.58 0 0 0 15.555 37.531l-13.672 13.672a10 10 0 0 0 0 14.14l44.195 44.227c1.875 1.875 4.418 2.934 7.07 2.934h.004a10 10 0 0 0 7.07-2.93l13.684-13.688c11.816 6.805 24.387 12.016 37.53 15.555V428zm-33.6-55.973c-3.957-2.56-9.164-2.004-12.5 1.328L156.45 385.53l-30.05-30.08 12.164-12.168c3.332-3.332 3.887-8.54 1.328-12.496a136.78 136.78 0 0 1-18.94-45.715c-.992-4.605-5.063-7.898-9.777-7.898H94l.023-42.527h17.152a10 10 0 0 0 9.777-7.898 136.89 136.89 0 0 1 18.941-45.711c2.56-3.957 2.004-9.164-1.328-12.496l-12.086-12.1 30.082-30.06 12.074 12.078a10.01 10.01 0 0 0 12.5 1.328c14.027-9.066 29.406-15.44 45.7-18.94 4.605-.992 7.898-5.066 7.898-9.777V94h42.527v17.074c0 4.715 3.3 8.8 7.898 9.777a136.94 136.94 0 0 1 45.711 18.941 9.99 9.99 0 0 0 12.496-1.328l12.078-12.074 30.082 30.06-12.086 12.086a10 10 0 0 0-1.328 12.5 136.84 136.84 0 0 1 18.94 45.71c.988 4.6 5.063 7.898 9.777 7.898h17.184v42.527H400.83c-4.715 0-8.785 3.293-9.777 7.898a136.87 136.87 0 0 1-18.94 45.71 10 10 0 0 0 1.328 12.5l12.164 12.164-30.06 30.082-12.176-12.172a10 10 0 0 0-12.5-1.328 136.84 136.84 0 0 1-45.71 18.94 10 10 0 0 0-7.898 9.777V418h-42.527v-17.254a10.01 10.01 0 0 0-7.898-9.777 136.88 136.88 0 0 1-45.709-18.942zM338.63 256c0-45.563-37.066-82.63-82.63-82.63s-82.63 37.067-82.63 82.63 37.066 82.63 82.63 82.63 82.63-37.066 82.63-82.63zm-145.258 0c0-34.535 28.094-62.63 62.63-62.63s62.63 28.098 62.63 62.63-28.094 62.63-62.63 62.63-62.63-28.094-62.63-62.63zM348.078 37.82a10.07 10.07 0 0 0 7.07-2.93 10.12 10.12 0 0 0 2.93-7.082 10.1 10.1 0 0 0-2.93-7.07c-1.86-1.86-4.438-2.93-7.07-2.93a10.05 10.05 0 0 0-7.066 2.93 10.09 10.09 0 0 0-2.934 7.07 10.09 10.09 0 0 0 2.934 7.082 10.05 10.05 0 0 0 7.066 2.93zM164.36 474.36c-2.63 0-5.2 1.07-7.07 2.93s-2.93 4.44-2.93 7.07a10.06 10.06 0 0 0 2.93 7.07c1.86 1.86 4.44 2.93 7.07 2.93s5.2-1.07 7.07-2.93 2.93-4.44 2.93-7.07-1.07-5.2-2.93-7.07-4.44-2.93-7.07-2.93z"/></svg>