<svg xmlns="http://www.w3.org/2000/svg" height="512" viewBox="0 -36 512.001 512" width="512"><path d="M503.6 208.168c-3.937-4.078-8.81-6.895-14.148-8.246 3.168-5.035 4.758-10.902 4.54-17.008-.566-15.94-14.258-28.914-30.52-28.914H404.06L404 65c0-19.297-15.7-35-35-35s-35 15.703-35 35v23.555c0 6.043-1.277 11.875-3.63 17.2-44.043-1.652-79.37-37.98-79.37-82.422V12.5C251 5.605 245.395 0 238.5 0h-129C102.605 0 97 5.605 97 12.5V21c0 45.492-37.008 82.5-82.5 82.5h-2C5.605 103.5 0 109.105 0 116v150c0 95.945 78.055 174 174 174 68.06 0 129.547-39.484 157.984-101H436.54c6.824 0 13.496-2.812 18.305-7.71 4.734-4.824 7.277-11.133 7.152-17.766-.062-3.375-.81-6.594-2.105-9.523h3.57c16.262 0 29.953-12.973 30.52-28.914.22-6.156-1.395-12.066-4.617-17.13 12.578-3.383 22.148-14.598 22.617-27.87a29.77 29.77 0 0 0-8.391-21.918zM174 425c-87.672 0-159-71.328-159-159V118.5c53.53-.273 97-43.906 97-97.5v-6h124v8.332c0 49.242 36.69 90.066 84.168 96.586a42.85 42.85 0 0 1-5.852 4.492l-40.973 26.07c-3.617 2.305-7.793 3.52-12.078 3.52h-9.227c-2.797-9.246-11.39-16-21.54-16h-42c-9.777 0-18.113 6.27-21.21 15H130.5c-10.754 0-19.5 8.75-19.5 19.5v129c0 10.754 8.746 19.5 19.5 19.5H166v73.785C98.62 390.887 45 334.84 45 266.5V142.23c51.516-3.75 92.57-45.797 94.742-97.73H166v66a7.5 7.5 0 1 0 15 0V37a7.5 7.5 0 0 0-7.5-7.5h-41.168a7.5 7.5 0 0 0-7.5 7.5v3.168c0 48.156-39.176 87.332-87.332 87.332A7.5 7.5 0 0 0 30 135v131.5C30 345.625 94.375 410 173.5 410a7.5 7.5 0 0 0 7.5-7.5v-67.27c1.754.488 3.594.77 5.5.77h44c7.352 0 13.89-3.543 17.996-9.012l8 4.53c8.633 4.895 18.438 7.48 28.355 7.48h30.438A158.9 158.9 0 0 1 174 425zm-8-119h-35.5a4.51 4.51 0 0 1-4.5-4.5v-129a4.51 4.51 0 0 1 4.5-4.5H166zm315.46-62H423a7.5 7.5 0 1 0 0 15h41c4.105 0 7.94 1.63 10.797 4.586s4.34 6.852 4.19 10.97c-.28 7.965-7.25 14.445-15.527 14.445H437c-.168 0-.336.016-.5.023-.164-.008-.332-.023-.5-.023h-13a7.5 7.5 0 1 0 0 15h13c.168 0 .336-.016.5-.023.164.008.332.023.5.023 5.4 0 9.898 4.398 10 9.81.047 2.57-.97 5.047-2.86 6.977-2.008 2.043-4.777 3.215-7.598 3.215h-151.69a42.56 42.56 0 0 1-20.957-5.527L253 312.297v-16.965c0-4.14-3.36-7.5-7.5-7.5s-7.5 3.36-7.5 7.5V313.5a7.51 7.51 0 0 1-7.5 7.5h-44a5.51 5.51 0 0 1-5.5-5.5v-155a7.51 7.51 0 0 1 7.5-7.5h42a7.51 7.51 0 0 1 7.5 7.5v99.832a7.5 7.5 0 1 0 15 0V169h8.266a37.42 37.42 0 0 0 20.129-5.863l40.977-26.074A57.22 57.22 0 0 0 349 88.555V65c0-11.027 8.973-20 20-20s20 8.973 20 20.004l.06 91.504a12.52 12.52 0 0 0 12.5 12.492h61.902c8.277 0 15.246 6.48 15.527 14.445a14.9 14.9 0 0 1-4.191 10.969C471.94 197.37 468.105 199 464 199h-41a7.5 7.5 0 1 0 0 15h59c4.105 0 7.94 1.63 10.797 4.586s4.34 6.852 4.19 10.97c-.28 7.965-7.25 14.445-15.527 14.445zm0 0" fill="#fff"/></svg>